<mxfile host="65bd71144e">
    <diagram id="FkvyLt1QBYBLUU6qPOaO" name="Page-1">
        <mxGraphModel dx="927" dy="1512" grid="0" gridSize="10" guides="1" tooltips="1" connect="1" arrows="1" fold="1" page="0" pageScale="1" pageWidth="850" pageHeight="1100" background="#ffffff" math="0" shadow="0">
            <root>
                <mxCell id="0"/>
                <mxCell id="1" parent="0"/>
                <mxCell id="95" value="wireless" style="rounded=0;whiteSpace=wrap;html=1;strokeColor=#36393d;strokeWidth=4;fontSize=34;fillColor=#ffcc99;noLabel=1;" vertex="1" parent="1">
                    <mxGeometry x="310" y="-428" width="117" height="121" as="geometry"/>
                </mxCell>
                <mxCell id="94" value="wireless" style="rounded=0;whiteSpace=wrap;html=1;strokeColor=#36393d;strokeWidth=4;fontSize=34;fillColor=#ffcc99;noLabel=1;" vertex="1" parent="1">
                    <mxGeometry x="458" y="-433" width="117" height="121" as="geometry"/>
                </mxCell>
                <mxCell id="92" value="wireless" style="rounded=0;whiteSpace=wrap;html=1;strokeColor=#36393d;strokeWidth=4;fontSize=34;fillColor=#ffcc99;noLabel=1;" vertex="1" parent="1">
                    <mxGeometry x="609" y="-437" width="117" height="121" as="geometry"/>
                </mxCell>
                <mxCell id="91" value="wireless" style="rounded=0;whiteSpace=wrap;html=1;strokeColor=#36393d;strokeWidth=4;fontSize=34;fillColor=#cdeb8b;noLabel=1;" vertex="1" parent="1">
                    <mxGeometry x="304" y="139" width="117" height="121" as="geometry"/>
                </mxCell>
                <mxCell id="90" value="wireless" style="rounded=0;whiteSpace=wrap;html=1;strokeColor=#d6b656;strokeWidth=4;fontSize=34;fillColor=#fff2cc;noLabel=1;gradientColor=#ffd966;" vertex="1" parent="1">
                    <mxGeometry x="331" y="269" width="224" height="274" as="geometry"/>
                </mxCell>
                <mxCell id="89" value="wireless" style="rounded=0;whiteSpace=wrap;html=1;strokeColor=#6c8ebf;strokeWidth=4;fontSize=34;fillColor=#dae8fc;noLabel=1;gradientColor=#7ea6e0;" vertex="1" parent="1">
                    <mxGeometry x="569" y="227" width="224" height="274" as="geometry"/>
                </mxCell>
                <mxCell id="76" value="" style="rounded=0;whiteSpace=wrap;html=1;strokeColor=#b46504;strokeWidth=4;fontSize=34;fillColor=#fad7ac;" vertex="1" parent="1">
                    <mxGeometry x="1036" y="-19" width="335" height="244" as="geometry"/>
                </mxCell>
                <mxCell id="77" value="" style="rounded=0;whiteSpace=wrap;html=1;strokeColor=#23445d;strokeWidth=4;fontSize=34;fillColor=#bac8d3;" vertex="1" parent="1">
                    <mxGeometry x="1035" y="-286" width="331" height="247" as="geometry"/>
                </mxCell>
                <mxCell id="75" value="" style="rounded=0;whiteSpace=wrap;html=1;strokeColor=#ae4132;strokeWidth=4;fontSize=34;fillColor=#fad9d5;" vertex="1" parent="1">
                    <mxGeometry x="827" y="-131" width="205" height="356" as="geometry"/>
                </mxCell>
                <mxCell id="74" value="wireless" style="rounded=0;whiteSpace=wrap;html=1;strokeColor=#56517e;strokeWidth=4;fontSize=34;fillColor=#d0cee2;fontColor=none;noLabel=1;" vertex="1" parent="1">
                    <mxGeometry x="340" y="-307" width="404" height="176" as="geometry"/>
                </mxCell>
                <mxCell id="73" value="&lt;blockquote style=&quot;margin: 0 0 0 40px; border: none; padding: 0px;&quot;&gt;&lt;font style=&quot;font-size: 34px;&quot; color=&quot;#00ff00&quot;&gt;Coeur de réseau&lt;/font&gt;&lt;/blockquote&gt;" style="whiteSpace=wrap;html=1;aspect=fixed;strokeColor=#33FFFF;strokeWidth=4;fillColor=#b0e3e6;labelPosition=center;verticalLabelPosition=middle;align=center;verticalAlign=middle;" vertex="1" parent="1">
                    <mxGeometry x="471" y="-131" width="353" height="353" as="geometry"/>
                </mxCell>
                <mxCell id="2" value="&lt;font color=&quot;#000000&quot;&gt;Active&amp;nbsp; Directory&lt;/font&gt;" style="shape=mxgraph.cisco.servers.fileserver;sketch=0;html=1;pointerEvents=1;dashed=0;fillColor=#036897;strokeColor=#ffffff;strokeWidth=2;verticalLabelPosition=bottom;verticalAlign=top;align=center;outlineConnect=0;" vertex="1" parent="1">
                    <mxGeometry x="723" y="420" width="29" height="54" as="geometry"/>
                </mxCell>
                <mxCell id="3" value="&lt;font color=&quot;#000000&quot;&gt;DNS&lt;/font&gt;" style="shape=mxgraph.cisco.servers.fileserver;sketch=0;html=1;pointerEvents=1;dashed=0;fillColor=#036897;strokeColor=#ffffff;strokeWidth=2;verticalLabelPosition=bottom;verticalAlign=top;align=center;outlineConnect=0;" vertex="1" parent="1">
                    <mxGeometry x="591" y="434" width="34" height="52" as="geometry"/>
                </mxCell>
                <mxCell id="8" value="visiteurs" style="shape=mxgraph.cisco.routers.wireless_router;sketch=0;html=1;pointerEvents=1;dashed=0;fillColor=#036897;strokeColor=#000000;strokeWidth=2;verticalLabelPosition=bottom;verticalAlign=top;align=center;outlineConnect=0;fontColor=#000000;" vertex="1" parent="1">
                    <mxGeometry x="331" y="-348" width="52.5" height="58" as="geometry"/>
                </mxCell>
                <mxCell id="9" value="conférenciers/Exposant" style="shape=mxgraph.cisco.routers.wireless_router;sketch=0;html=1;pointerEvents=1;dashed=0;fillColor=#036897;strokeColor=#000000;strokeWidth=2;verticalLabelPosition=bottom;verticalAlign=top;align=center;outlineConnect=0;fontColor=#000000;" vertex="1" parent="1">
                    <mxGeometry x="490" y="-363" width="53" height="64" as="geometry"/>
                </mxCell>
                <mxCell id="12" value="&lt;font color=&quot;#000000&quot;&gt;Internet&lt;/font&gt;" style="ellipse;shape=cloud;whiteSpace=wrap;html=1;fillColor=#bac8d3;strokeColor=#23445d;" vertex="1" parent="1">
                    <mxGeometry x="125" y="75" width="120" height="80" as="geometry"/>
                </mxCell>
                <mxCell id="13" value="" style="shape=mxgraph.cisco.switches.workgroup_switch;sketch=0;html=1;pointerEvents=1;dashed=0;fillColor=#036897;strokeColor=#ffffff;strokeWidth=2;verticalLabelPosition=bottom;verticalAlign=top;align=center;outlineConnect=0;fontColor=#000000;" vertex="1" parent="1">
                    <mxGeometry x="1198" y="-145" width="62" height="25" as="geometry"/>
                </mxCell>
                <mxCell id="18" value="" style="shape=mxgraph.cisco.switches.workgroup_switch;sketch=0;html=1;pointerEvents=1;dashed=0;fillColor=#60a917;strokeColor=#2D7600;strokeWidth=2;verticalLabelPosition=bottom;verticalAlign=top;align=center;outlineConnect=0;fontColor=#ffffff;" vertex="1" parent="1">
                    <mxGeometry x="569" y="63" width="85" height="55.5" as="geometry"/>
                </mxCell>
                <mxCell id="19" value="" style="shape=mxgraph.cisco.switches.workgroup_switch;sketch=0;html=1;pointerEvents=1;dashed=0;fillColor=#036897;strokeColor=#ffffff;strokeWidth=2;verticalLabelPosition=bottom;verticalAlign=top;align=center;outlineConnect=0;fontColor=#000000;" vertex="1" parent="1">
                    <mxGeometry x="639" y="379" width="69" height="36" as="geometry"/>
                </mxCell>
                <mxCell id="20" value="" style="endArrow=none;html=1;fontColor=#000000;strokeColor=#000000;" edge="1" parent="1" source="33" target="19">
                    <mxGeometry width="50" height="50" relative="1" as="geometry">
                        <mxPoint x="673.5000000000002" y="334.0000000000002" as="sourcePoint"/>
                        <mxPoint x="834" y="272" as="targetPoint"/>
                    </mxGeometry>
                </mxCell>
                <mxCell id="21" value="" style="endArrow=none;html=1;strokeColor=#000000;fontColor=#000000;" edge="1" parent="1" target="2">
                    <mxGeometry width="50" height="50" relative="1" as="geometry">
                        <mxPoint x="687" y="408" as="sourcePoint"/>
                        <mxPoint x="834" y="272" as="targetPoint"/>
                    </mxGeometry>
                </mxCell>
                <mxCell id="22" value="" style="endArrow=none;html=1;strokeColor=#000000;fontColor=#000000;" edge="1" parent="1" source="3" target="19">
                    <mxGeometry width="50" height="50" relative="1" as="geometry">
                        <mxPoint x="617" y="440" as="sourcePoint"/>
                        <mxPoint x="667" y="390" as="targetPoint"/>
                    </mxGeometry>
                </mxCell>
                <mxCell id="23" value="" style="shape=mxgraph.cisco.computers_and_peripherals.workstation;sketch=0;html=1;pointerEvents=1;dashed=0;fillColor=#036897;strokeColor=#ffffff;strokeWidth=2;verticalLabelPosition=bottom;verticalAlign=top;align=center;outlineConnect=0;fontColor=#000000;" vertex="1" parent="1">
                    <mxGeometry x="1299" y="-97" width="72" height="49" as="geometry"/>
                </mxCell>
                <mxCell id="24" value="" style="shape=mxgraph.cisco.computers_and_peripherals.workstation;sketch=0;html=1;pointerEvents=1;dashed=0;fillColor=#036897;strokeColor=#ffffff;strokeWidth=2;verticalLabelPosition=bottom;verticalAlign=top;align=center;outlineConnect=0;fontColor=#000000;" vertex="1" parent="1">
                    <mxGeometry x="1302" y="-200" width="64" height="51" as="geometry"/>
                </mxCell>
                <mxCell id="26" value="" style="endArrow=none;html=1;strokeColor=#000000;fontColor=#000000;exitX=0.5;exitY=0.98;exitDx=0;exitDy=0;exitPerimeter=0;" edge="1" parent="1" source="13" target="23">
                    <mxGeometry width="50" height="50" relative="1" as="geometry">
                        <mxPoint x="1230" y="-24" as="sourcePoint"/>
                        <mxPoint x="1280" y="-74" as="targetPoint"/>
                    </mxGeometry>
                </mxCell>
                <mxCell id="27" value="" style="endArrow=none;html=1;strokeColor=#000000;fontColor=#000000;" edge="1" parent="1" source="13" target="24">
                    <mxGeometry width="50" height="50" relative="1" as="geometry">
                        <mxPoint x="1252" y="-126" as="sourcePoint"/>
                        <mxPoint x="1295" y="-163" as="targetPoint"/>
                    </mxGeometry>
                </mxCell>
                <mxCell id="29" value="Bordure" style="shape=mxgraph.cisco.routers.router;sketch=0;html=1;pointerEvents=1;dashed=0;fillColor=#a20025;strokeColor=#6F0000;strokeWidth=2;verticalLabelPosition=bottom;verticalAlign=top;align=center;outlineConnect=0;fontColor=#000000;" vertex="1" parent="1">
                    <mxGeometry x="337" y="85" width="67" height="51" as="geometry"/>
                </mxCell>
                <mxCell id="32" value="DMZ Externe" style="shape=mxgraph.cisco.routers.router;sketch=0;html=1;pointerEvents=1;dashed=0;fillColor=#a20025;strokeColor=#6F0000;strokeWidth=2;verticalLabelPosition=bottom;verticalAlign=top;align=center;outlineConnect=0;fontColor=#000000;" vertex="1" parent="1">
                    <mxGeometry x="323" y="217" width="85" height="56" as="geometry"/>
                </mxCell>
                <mxCell id="33" value="serveur interne" style="shape=mxgraph.cisco.routers.router;sketch=0;html=1;pointerEvents=1;dashed=0;fillColor=#036897;strokeColor=#ffffff;strokeWidth=2;verticalLabelPosition=bottom;verticalAlign=top;align=center;outlineConnect=0;fontColor=#000000;" vertex="1" parent="1">
                    <mxGeometry x="634.5" y="250" width="78" height="53" as="geometry"/>
                </mxCell>
                <mxCell id="34" value="DMZ interne" style="shape=mxgraph.cisco.routers.router;sketch=0;html=1;pointerEvents=1;dashed=0;fillColor=#036897;strokeColor=#ffffff;strokeWidth=2;verticalLabelPosition=bottom;verticalAlign=top;align=center;outlineConnect=0;fontColor=#000000;" vertex="1" parent="1">
                    <mxGeometry x="446" y="265" width="77" height="54" as="geometry"/>
                </mxCell>
                <mxCell id="35" value="salle de conf" style="shape=mxgraph.cisco.routers.router;sketch=0;html=1;pointerEvents=1;dashed=0;fillColor=#036897;strokeColor=#ffffff;strokeWidth=2;verticalLabelPosition=bottom;verticalAlign=top;align=center;outlineConnect=0;fontColor=#000000;" vertex="1" parent="1">
                    <mxGeometry x="1002" y="-105" width="65" height="40" as="geometry"/>
                </mxCell>
                <mxCell id="36" value="stations" style="shape=mxgraph.cisco.routers.router;sketch=0;html=1;pointerEvents=1;dashed=0;fillColor=#60a917;strokeColor=#2D7600;strokeWidth=2;verticalLabelPosition=bottom;verticalAlign=top;align=center;outlineConnect=0;fontColor=#000000;" vertex="1" parent="1">
                    <mxGeometry x="784" y="-2" width="65" height="40" as="geometry"/>
                </mxCell>
                <mxCell id="38" value="" style="endArrow=none;html=1;strokeColor=#000000;fontColor=#000000;" edge="1" parent="1" source="13" target="35">
                    <mxGeometry width="50" height="50" relative="1" as="geometry">
                        <mxPoint x="871" y="100" as="sourcePoint"/>
                        <mxPoint x="921" y="50" as="targetPoint"/>
                    </mxGeometry>
                </mxCell>
                <mxCell id="39" value="" style="shape=mxgraph.cisco.switches.workgroup_switch;sketch=0;html=1;pointerEvents=1;dashed=0;fillColor=#036897;strokeColor=#ffffff;strokeWidth=2;verticalLabelPosition=bottom;verticalAlign=top;align=center;outlineConnect=0;fontColor=#000000;" vertex="1" parent="1">
                    <mxGeometry x="1215.5" y="67" width="62" height="25" as="geometry"/>
                </mxCell>
                <mxCell id="40" value="" style="shape=mxgraph.cisco.computers_and_peripherals.workstation;sketch=0;html=1;pointerEvents=1;dashed=0;fillColor=#036897;strokeColor=#ffffff;strokeWidth=2;verticalLabelPosition=bottom;verticalAlign=top;align=center;outlineConnect=0;fontColor=#000000;" vertex="1" parent="1">
                    <mxGeometry x="1316.5" y="115" width="72" height="49" as="geometry"/>
                </mxCell>
                <mxCell id="41" value="" style="shape=mxgraph.cisco.computers_and_peripherals.workstation;sketch=0;html=1;pointerEvents=1;dashed=0;fillColor=#036897;strokeColor=#ffffff;strokeWidth=2;verticalLabelPosition=bottom;verticalAlign=top;align=center;outlineConnect=0;fontColor=#000000;" vertex="1" parent="1">
                    <mxGeometry x="1319.5" y="12" width="64" height="51" as="geometry"/>
                </mxCell>
                <mxCell id="42" value="" style="endArrow=none;html=1;strokeColor=#000000;fontColor=#000000;exitX=0.5;exitY=0.98;exitDx=0;exitDy=0;exitPerimeter=0;" edge="1" parent="1" source="39" target="40">
                    <mxGeometry width="50" height="50" relative="1" as="geometry">
                        <mxPoint x="1247.5" y="188" as="sourcePoint"/>
                        <mxPoint x="1297.5" y="138" as="targetPoint"/>
                    </mxGeometry>
                </mxCell>
                <mxCell id="43" value="" style="endArrow=none;html=1;strokeColor=#000000;fontColor=#000000;" edge="1" parent="1" source="39" target="41">
                    <mxGeometry width="50" height="50" relative="1" as="geometry">
                        <mxPoint x="1269.5" y="86" as="sourcePoint"/>
                        <mxPoint x="1312.5" y="49" as="targetPoint"/>
                    </mxGeometry>
                </mxCell>
                <mxCell id="44" value="employés" style="shape=mxgraph.cisco.routers.router;sketch=0;html=1;pointerEvents=1;dashed=0;fillColor=#036897;strokeColor=#ffffff;strokeWidth=2;verticalLabelPosition=bottom;verticalAlign=top;align=center;outlineConnect=0;fontColor=#000000;" vertex="1" parent="1">
                    <mxGeometry x="1009" y="90.5" width="65" height="40" as="geometry"/>
                </mxCell>
                <mxCell id="45" value="" style="endArrow=none;html=1;strokeColor=#000000;fontColor=#000000;" edge="1" parent="1" source="39" target="44">
                    <mxGeometry width="50" height="50" relative="1" as="geometry">
                        <mxPoint x="888.5" y="312" as="sourcePoint"/>
                        <mxPoint x="938.5" y="262" as="targetPoint"/>
                    </mxGeometry>
                </mxCell>
                <mxCell id="49" value="wlan" style="shape=mxgraph.cisco.routers.router;sketch=0;html=1;pointerEvents=1;dashed=0;fillColor=#60a917;strokeColor=#2D7600;strokeWidth=2;verticalLabelPosition=bottom;verticalAlign=top;align=center;outlineConnect=0;fontColor=#000000;" vertex="1" parent="1">
                    <mxGeometry x="490" y="-92.5" width="65" height="40" as="geometry"/>
                </mxCell>
                <mxCell id="50" value="Employés" style="shape=mxgraph.cisco.routers.wireless_router;sketch=0;html=1;pointerEvents=1;dashed=0;fillColor=#036897;strokeColor=#000000;strokeWidth=2;verticalLabelPosition=bottom;verticalAlign=top;align=center;outlineConnect=0;fontColor=#000000;" vertex="1" parent="1">
                    <mxGeometry x="634.5" y="-357" width="52.5" height="58" as="geometry"/>
                </mxCell>
                <mxCell id="52" value="&lt;font color=&quot;#000000&quot;&gt;Active&amp;nbsp; Directory&lt;/font&gt;" style="shape=mxgraph.cisco.servers.fileserver;sketch=0;html=1;pointerEvents=1;dashed=0;fillColor=#036897;strokeColor=#ffffff;strokeWidth=2;verticalLabelPosition=bottom;verticalAlign=top;align=center;outlineConnect=0;" vertex="1" parent="1">
                    <mxGeometry x="457" y="425" width="29" height="54" as="geometry"/>
                </mxCell>
                <mxCell id="53" value="&lt;font color=&quot;#000000&quot;&gt;DNS&lt;/font&gt;" style="shape=mxgraph.cisco.servers.fileserver;sketch=0;html=1;pointerEvents=1;dashed=0;fillColor=#036897;strokeColor=#ffffff;strokeWidth=2;verticalLabelPosition=bottom;verticalAlign=top;align=center;outlineConnect=0;" vertex="1" parent="1">
                    <mxGeometry x="325" y="439" width="34" height="52" as="geometry"/>
                </mxCell>
                <mxCell id="54" value="" style="shape=mxgraph.cisco.switches.workgroup_switch;sketch=0;html=1;pointerEvents=1;dashed=0;fillColor=#036897;strokeColor=#ffffff;strokeWidth=2;verticalLabelPosition=bottom;verticalAlign=top;align=center;outlineConnect=0;fontColor=#000000;" vertex="1" parent="1">
                    <mxGeometry x="373" y="384" width="69" height="36" as="geometry"/>
                </mxCell>
                <mxCell id="55" value="" style="endArrow=none;html=1;strokeColor=#000000;fontColor=#000000;" edge="1" parent="1" target="52">
                    <mxGeometry width="50" height="50" relative="1" as="geometry">
                        <mxPoint x="421" y="413" as="sourcePoint"/>
                        <mxPoint x="568" y="277" as="targetPoint"/>
                    </mxGeometry>
                </mxCell>
                <mxCell id="56" value="" style="endArrow=none;html=1;strokeColor=#000000;fontColor=#000000;" edge="1" parent="1" source="53" target="54">
                    <mxGeometry width="50" height="50" relative="1" as="geometry">
                        <mxPoint x="351" y="445" as="sourcePoint"/>
                        <mxPoint x="401" y="395" as="targetPoint"/>
                    </mxGeometry>
                </mxCell>
                <mxCell id="57" value="" style="endArrow=none;html=1;strokeColor=#000000;fontColor=#000000;entryX=0.5;entryY=1;entryDx=0;entryDy=0;entryPerimeter=0;" edge="1" parent="1" source="32" target="29">
                    <mxGeometry width="50" height="50" relative="1" as="geometry">
                        <mxPoint x="309" y="235" as="sourcePoint"/>
                        <mxPoint x="359" y="185" as="targetPoint"/>
                    </mxGeometry>
                </mxCell>
                <mxCell id="58" value="" style="endArrow=none;html=1;strokeColor=#000000;fontColor=#000000;entryX=0.5;entryY=1;entryDx=0;entryDy=0;entryPerimeter=0;" edge="1" parent="1" source="54" target="34">
                    <mxGeometry width="50" height="50" relative="1" as="geometry">
                        <mxPoint x="560" y="381" as="sourcePoint"/>
                        <mxPoint x="666" y="324" as="targetPoint"/>
                    </mxGeometry>
                </mxCell>
                <mxCell id="59" value="" style="endArrow=none;html=1;strokeColor=#000000;fontColor=#000000;" edge="1" parent="1" source="12" target="29">
                    <mxGeometry width="50" height="50" relative="1" as="geometry">
                        <mxPoint x="616" y="374" as="sourcePoint"/>
                        <mxPoint x="666" y="324" as="targetPoint"/>
                    </mxGeometry>
                </mxCell>
                <mxCell id="60" value="" style="endArrow=none;html=1;strokeColor=#000000;fontColor=#000000;exitX=0.5;exitY=1;exitDx=0;exitDy=0;exitPerimeter=0;entryX=0.435;entryY=0.694;entryDx=0;entryDy=0;entryPerimeter=0;" edge="1" parent="1" source="32" target="54">
                    <mxGeometry width="50" height="50" relative="1" as="geometry">
                        <mxPoint x="616" y="208" as="sourcePoint"/>
                        <mxPoint x="666" y="158" as="targetPoint"/>
                    </mxGeometry>
                </mxCell>
                <mxCell id="61" value="" style="endArrow=none;html=1;strokeColor=#000000;fontColor=#000000;entryX=0.5;entryY=0.98;entryDx=0;entryDy=0;entryPerimeter=0;" edge="1" parent="1" source="34" target="18">
                    <mxGeometry width="50" height="50" relative="1" as="geometry">
                        <mxPoint x="616" y="208" as="sourcePoint"/>
                        <mxPoint x="666" y="158" as="targetPoint"/>
                    </mxGeometry>
                </mxCell>
                <mxCell id="62" value="" style="endArrow=none;html=1;strokeColor=#000000;fontColor=#000000;entryX=0.12;entryY=0.9;entryDx=0;entryDy=0;entryPerimeter=0;" edge="1" parent="1" source="18" target="36">
                    <mxGeometry width="50" height="50" relative="1" as="geometry">
                        <mxPoint x="616" y="208" as="sourcePoint"/>
                        <mxPoint x="666" y="158" as="targetPoint"/>
                    </mxGeometry>
                </mxCell>
                <mxCell id="63" value="" style="endArrow=none;html=1;strokeColor=#000000;fontColor=#000000;entryX=0.12;entryY=0.1;entryDx=0;entryDy=0;entryPerimeter=0;exitX=0.88;exitY=0.9;exitDx=0;exitDy=0;exitPerimeter=0;" edge="1" parent="1" source="49" target="36">
                    <mxGeometry width="50" height="50" relative="1" as="geometry">
                        <mxPoint x="616" y="208" as="sourcePoint"/>
                        <mxPoint x="666" y="158" as="targetPoint"/>
                    </mxGeometry>
                </mxCell>
                <mxCell id="64" value="" style="endArrow=none;html=1;strokeColor=#000000;fontColor=#000000;" edge="1" parent="1" source="29" target="18">
                    <mxGeometry width="50" height="50" relative="1" as="geometry">
                        <mxPoint x="616" y="208" as="sourcePoint"/>
                        <mxPoint x="666" y="158" as="targetPoint"/>
                    </mxGeometry>
                </mxCell>
                <mxCell id="67" value="" style="endArrow=none;html=1;strokeColor=#000000;fontColor=#000000;" edge="1" parent="1">
                    <mxGeometry width="50" height="50" relative="1" as="geometry">
                        <mxPoint x="533" y="-96" as="sourcePoint"/>
                        <mxPoint x="533" y="-181" as="targetPoint"/>
                    </mxGeometry>
                </mxCell>
                <mxCell id="70" value="" style="endArrow=none;html=1;strokeColor=#000000;fontColor=#000000;entryX=0.5;entryY=1;entryDx=0;entryDy=0;entryPerimeter=0;" edge="1" parent="1" source="80" target="9">
                    <mxGeometry width="50" height="50" relative="1" as="geometry">
                        <mxPoint x="510" y="-91" as="sourcePoint"/>
                        <mxPoint x="666" y="-9" as="targetPoint"/>
                    </mxGeometry>
                </mxCell>
                <mxCell id="71" value="" style="endArrow=none;html=1;strokeColor=#000000;fontColor=#000000;entryX=0.88;entryY=0.93;entryDx=0;entryDy=0;entryPerimeter=0;" edge="1" parent="1" source="80" target="8">
                    <mxGeometry width="50" height="50" relative="1" as="geometry">
                        <mxPoint x="353" y="-63.250000000000114" as="sourcePoint"/>
                        <mxPoint x="353" y="-170.7500000000001" as="targetPoint"/>
                    </mxGeometry>
                </mxCell>
                <mxCell id="72" value="" style="endArrow=none;html=1;strokeColor=#000000;fontColor=#000000;" edge="1" parent="1" source="33" target="18">
                    <mxGeometry width="50" height="50" relative="1" as="geometry">
                        <mxPoint x="682" y="239.4999999999999" as="sourcePoint"/>
                        <mxPoint x="682" y="131.9999999999999" as="targetPoint"/>
                    </mxGeometry>
                </mxCell>
                <mxCell id="78" value="" style="shape=mxgraph.cisco.switches.workgroup_switch;sketch=0;html=1;pointerEvents=1;dashed=0;fillColor=#036897;strokeColor=#ffffff;strokeWidth=2;verticalLabelPosition=bottom;verticalAlign=top;align=center;outlineConnect=0;fontSize=34;fontColor=#00FF00;" vertex="1" parent="1">
                    <mxGeometry x="908" y="12" width="87" height="43" as="geometry"/>
                </mxCell>
                <mxCell id="80" value="" style="shape=mxgraph.cisco.switches.workgroup_switch;sketch=0;html=1;pointerEvents=1;dashed=0;fillColor=#036897;strokeColor=#ffffff;strokeWidth=2;verticalLabelPosition=bottom;verticalAlign=top;align=center;outlineConnect=0;fontSize=34;fontColor=#00FF00;" vertex="1" parent="1">
                    <mxGeometry x="486" y="-213" width="87" height="43" as="geometry"/>
                </mxCell>
                <mxCell id="81" value="" style="endArrow=none;html=1;strokeColor=#000000;fontSize=34;fontColor=#00FF00;entryX=0.12;entryY=0.9;entryDx=0;entryDy=0;entryPerimeter=0;exitX=0.5;exitY=0.98;exitDx=0;exitDy=0;exitPerimeter=0;" edge="1" parent="1" source="78" target="44">
                    <mxGeometry width="50" height="50" relative="1" as="geometry">
                        <mxPoint x="849" y="128" as="sourcePoint"/>
                        <mxPoint x="899" y="78" as="targetPoint"/>
                    </mxGeometry>
                </mxCell>
                <mxCell id="82" value="" style="endArrow=none;html=1;strokeColor=#000000;fontSize=34;fontColor=#00FF00;entryX=0.5;entryY=1;entryDx=0;entryDy=0;entryPerimeter=0;" edge="1" parent="1" source="78" target="35">
                    <mxGeometry width="50" height="50" relative="1" as="geometry">
                        <mxPoint x="869" y="28" as="sourcePoint"/>
                        <mxPoint x="919" y="-22" as="targetPoint"/>
                    </mxGeometry>
                </mxCell>
                <mxCell id="84" value="" style="endArrow=none;html=1;strokeColor=#000000;fontSize=34;fontColor=#00FF00;exitX=0.88;exitY=0.9;exitDx=0;exitDy=0;exitPerimeter=0;" edge="1" parent="1" source="36" target="78">
                    <mxGeometry width="50" height="50" relative="1" as="geometry">
                        <mxPoint x="869" y="28" as="sourcePoint"/>
                        <mxPoint x="919" y="-22" as="targetPoint"/>
                    </mxGeometry>
                </mxCell>
                <mxCell id="88" value="" style="endArrow=none;html=1;strokeColor=#000000;fontColor=#000000;entryX=0.5;entryY=1;entryDx=0;entryDy=0;entryPerimeter=0;" edge="1" parent="1" source="80" target="50">
                    <mxGeometry width="50" height="50" relative="1" as="geometry">
                        <mxPoint x="596.8999999999999" y="-203" as="sourcePoint"/>
                        <mxPoint x="570.5" y="-289" as="targetPoint"/>
                    </mxGeometry>
                </mxCell>
            </root>
        </mxGraphModel>
    </diagram>
</mxfile>